<?xml version="1.0" encoding="UTF-8"?>
<svg id="_图层_1" xmlns="http://www.w3.org/2000/svg" version="1.1" xmlns:xlink="http://www.w3.org/1999/xlink" viewBox="0 0 2048 2048">
  <!-- Generator: Adobe Illustrator 30.0.0, SVG Export Plug-In . SVG Version: 2.1.1 Build 123)  -->
  <defs>
    <style>
      .st0 {
        fill: #f64e08;
      }

      .st1 {
        fill: #f23908;
      }

      .st2 {
        fill: #fc7006;
      }

      .st3 {
        fill: none;
      }

      .st4 {
        fill: #f85502;
      }

      .st5 {
        fill: #fa6b10;
      }

      .st6 {
        fill: url(#_未命名的渐变_3);
      }

      .st7 {
        fill: url(#_未命名的渐变);
      }

      .st8 {
        fill: #f85807;
      }

      .st9 {
        fill: #f23503;
      }

      .st10 {
        fill: #fd7200;
      }

      .st11 {
        fill: #fefefe;
      }

      .st12 {
        fill: #fb6b0b;
      }

      .st13 {
        fill: #fd7505;
      }

      .st14 {
        fill: url(#_未命名的渐变_2);
      }
    </style>
    <linearGradient id="_未命名的渐变" data-name="未命名的渐变" x1="272.86" y1="1421.15" x2="662.75" y2="864.34" gradientTransform="translate(0 2048) scale(1 -1)" gradientUnits="userSpaceOnUse">
      <stop offset=".3" stop-color="#fd7200"/>
      <stop offset="1" stop-color="#f23703"/>
      <stop offset="1" stop-color="#f23503"/>
    </linearGradient>
    <linearGradient id="_未命名的渐变_2" data-name="未命名的渐变 2" x1="1346.91" y1="1443.26" x2="1771.25" y2="837.23" gradientTransform="translate(0 2048) scale(1 -1)" gradientUnits="userSpaceOnUse">
      <stop offset=".3" stop-color="#fd7000"/>
      <stop offset="1" stop-color="#f23503"/>
      <stop offset="1" stop-color="#fd7000"/>
    </linearGradient>
    <linearGradient id="_未命名的渐变_3" data-name="未命名的渐变 3" x1="892.48" y1="1376.24" x2="1204.53" y2="930.58" gradientTransform="translate(0 2048) scale(1 -1)" gradientUnits="userSpaceOnUse">
      <stop offset="0" stop-color="#fd7200"/>
      <stop offset=".47" stop-color="#fd7100"/>
      <stop offset="1" stop-color="#f23503"/>
    </linearGradient>
  </defs>
  <path class="st7" d="M383.95,840l169,1v-197h136.06c-.06,6-.04,4.38-.06,6-.19,32.09-.99,83.67-1.02,105.52.26,2.1-.57,4.31,1.08,5.36v13.58c-.23,88.52.03,177.03-.06,265.54l-.99,126.01h-135.01v-195.01h-168.01l-1.05,2.4c-.06,56.53.27,113.09.05,169.6-2.29,7.1-.39,15.58-.99,23.01-1.06,1.06-22.72-1.55-26.01.99-36.65.24-73.35-.18-110,0v-522h136l1,195h.01Z"/>
  <path class="st14" d="M1671.37,645h154.76c-51.93,78.61-108.05,152.16-161.31,229.68-5.94,8.65-10.97,18.19-17.41,26.55l186.27,265.83-171.26-.07-101.41-142.63c-.99,1.37-1.56,2.26-3.08,4.45-32.56,46.29-63.82,91.55-95.61,138.24l-65.69-.08c-33.21.1-68.91.07-104.62,0-3.24-.03-2.75.08-2.09-.94l185.2-263.97-185.69-257.07h176.9l94.81,133.78c4.4-5.45,2.65-3.28,3.84-4.74,5.74-7.22,14.16-17.88,20.06-25.95l71.06-103.08c3.32,0,8.32.06,11.61,0h3.68-.02Z"/>
  <path class="st6" d="M1020,664v97c-2.96,10.11-16.32,14.69-22.04,22.5,5.74,9.56,18.25,11.75,21.04,23.5l1,86c-.27,20.99,4.05,43.88-19.61,53.89-21.05,8.91-28.5-5.36-43.47-14.31-27.44-16.4-60-19.78-91.46-17.62-12.63.87-28.25,5.69-40.98,4.06-9.57-1.22-14.77-13.74-5.76-15.81,8.24-1.89,33.92,2.52,39.38-4.65,1.69-5.34-4.56-11.1-6.58-16.57-8.06-21.79,3.15-41.34,26.23-44.75,5.71-.84,22.47-.03,18.74,8.74-2.01,4.73-10.46,4.26-15.26,5.74-22.29,6.88-18.93,24.94-6.19,39.75,11.53,13.4,15.6,6.59,31.45,7.55,15.24.92,41.17,8.97,54.55,16.45,6.6,3.69,16.84,15.27,22.9,16.1,6.92.95,19.44-4.76,19.11-13.01l-.07-108.02c-5.82-11.82-36.7-18.65-23.5-35.55,4.86-6.23,21.59-12.08,23.31-19.69l.15-72.72c-5.77-21.21-33.83-18.13-50.47-13.6-20.53,5.6-45.3,24.17-51.92,45.08-1.51,4.77-1.63,13.93-5.02,16.98-3.85,3.47-10.89,1.42-15.9,2.1-33.01,4.47-62.42,39.02-52.95,72.7,1.2,4.25,9.3,15.21,8.87,17.27-.72,3.41-21.66,14.07-26.56,18.4-34.58,30.53-35.15,97.03,3.7,124.32,30.02,21.09,60.93,14.51,94.64,8.02,4.9-2.95-2.91-10.21-4.52-14.15-2.29-5.6-4.01-15.07,4.65-14.77,7.65.27,10.24,11.21,13.99,16.12,13.26,17.36,25.83,10.34,44.02,11.98,15.3,1.38,37.6,11.72,46.93,24.07,6.81,9.01,6.18,19.24,6.63,30.37,1.25,31.37-2.72,66.39-.08,97.08,1.51,17.52,16.32,30.46,33.5,31.5,6.56.39,16.27.08,16.6-8.55.26-6.57-2.5-18.6-3.05-26-.46-6.13.69-12.44-.46-18.54-8.3-10.89-22.15-18.28-23.59-33.41l.02-398.06c12.97-38.11,68.28-35.41,99.27-24.22,20.43,7.37,41.85,24.72,51.93,44.07,1.83,3.5,2.83,10.89,5.83,13.17,5.12,2.05,10.97,1.95,16.62,3.38,45.7,11.53,80.14,60.16,68.34,107.47,52.58,37.67,60.45,115.27,17.54,163.67-8.8,9.93-19.52,16.17-30.02,24.01,1.06,15.79,1.22,30.01-3.79,45.18-19.61,59.39-79.07,78.07-136.25,74.83-12.13-.69-24.15-4.31-36.3-3.89-3.08,1.95,3.76,25.42,3.87,30.41.39,17.57-15.71,32.03-32.49,33.48-33.85,2.91-71.2-15.67-74.52-52.55-.84-9.29,3.41-24.56-6.32-29.68-7.43-3.91-24.28.71-33.21,1.18-65.32,3.49-132.39-29.6-135.42-101.55-7.56-5.36-16.19-8.67-23.54-14.46-53.91-42.39-49.87-132.3,5.28-171.66,1.53-5.19-1.46-10.04-1.79-14.82-3.18-45.11,33.29-88.15,77.53-94.45,3.08-2.1,3.75-8.77,5.64-12.36,18.88-35.86,62.26-56.37,102.19-52.56,13.28,1.27,33.65,9.79,37.62,23.88l.02-.02h0ZM1064,684c-.25.76-1.64,1.84-1.07,3.39l.07,73.61c-1.88,5.38-7.89,7.18-8.93,13.56-4.63,28.56,39.78,26.34,32.46-1.59-1.69-6.44-8.71-7.1-9.58-15.42-2.25-21.54,1.72-47.02.11-68.99.63-4.71,5.32-6.9,9.53-7.47,7.01-.95,34.5-.86,40.4,1.42,4.06,1.57,25.22,20.95,28.02,24.98,2.35,3.39,2.92,10.95,1.79,14.79-1.27,4.32-10.77,7.58-11.81,16.18-2.96,24.47,31.38,25.94,33.07,5.08,1.07-13.16-7.35-12.68-8.84-19.26-1.12-4.98.53-11.6-.28-16.72-1.62-10.2-32.96-36.39-43.43-37.57-9.31-1.05-35.81-1.16-44.91.09-6.71.92-14.47,7.51-16.59,13.91h0ZM1155.73,779.23c-9.34,1.93-13.5,13.25-11.26,21.8,1.23,4.7,8.64,8.84,8.32,12.32-9.3,12.86-22.58,22.93-33.78,34.16-1.2,1.21-2.01,3.08-3.46,4.54-3.78,3.8-12.42,9.46-14.1,14.9-3.11,10.04,1.45,31.91-.5,43.5-1.2,7.15-10.06,6.89-8.99,20.11,1.89,23.36,40.6,17.13,32.28-8.28-1.71-5.24-8.26-7.4-9.17-12.83-.73-4.31-.55-34.11.7-37.19,2.55-2.68,4.86-6.07,7.25-8.75,9.07-10.15,38.79-35.05,43.2-44.8,1.02-2.25.67-4.67,1.91-7.09,1.79-3.49,7.11-5.63,8.41-10.59,3.61-13.77-6.9-24.66-20.8-21.8h0ZM1195.45,893.47c9.71-7.18,4.04-14.55,8.09-21.42l44.7-43.3c-.95-10.3,4.72-11.19,8.58-17.42,9.31-14.99-7.9-32.43-23.77-22.77-6.99,4.26-8.67,11.71-6.85,19.72,1.22,5.35,11.07,8.77,9.39,14.73-.95,3.39-5.06,4.7-7.15,6.94-6.05,6.49-25.21,27.8-31.5,31.5-5.24,3.09-11.16.59-16.98,2.02-16.09,3.94-14.28,30.48,1.5,32.55,4.81.63,10.32.16,13.98-2.55h.01ZM1282.73,907.24c-11.82,2.45-15.1,18.49-8.16,27.7,2.7,3.59,6.48,1.6,3.33,9.47-2.39,5.97-22.41,26.13-28.62,27.37-41.46-.2-83.49,1.56-124.65-.9-5.87-5.59-8.26-9.29-17.16-8.93-10.59.43-11.25,8.5-17.18,9.84l-25.29.71-2.04,3.96.54,73.55,3.96,2.04c43.57.63,87.66-1.5,130.92,1.08,6.44,7.56,15.4,12.6,24.96,6.7,16.16-9.96,6.09-35.72-14.36-30.36-5.88,1.54-8.18,9.18-14.45,9.55l-116.5-.55c-2.02-1.31-2.77-2.57-3.08-4.92-1.8-13.72,1.26-31.66.27-45.84,1.36-4.72,10.23-4.36,14.07-3.5,6.6,1.48,6.82,12,21.27,10.84,9.95-.8,11.14-10.06,18.93-11.07l127.55-.45c13.11-8,23.62-21.19,32.39-33.61,2.08-2.95,3.08-6.94,5.15-9.85,2.6-3.65,7.73-6.32,8.96-11.04,3.6-13.73-6.98-24.66-20.8-21.79h0ZM938.8,993.3c-19.12,1.48-38.3,6.69-57.42,8.58-9.28.92-21.71-.15-29.82,1.18-1.82.3-3.33,1.08-4.63,2.37-2.32,3.2,1.19,12.83,2.59,16.55,19.99,53.1,85.23,57.96,133.69,49.73,4.59-.78,13.75-1.88,14.77-7.23-.98-14.47,1.41-30.78.07-45.01-.78-8.28-6.4-13.59-13.12-17.88-14.06-8.98-29.93-9.53-46.12-8.28h-.01Z"/>
  <path d="M996,1280l-32-.5c-3.38-1.65-1.95-12.1-1.56-15.57l148.57-.44c3.91,1.9,2.33,16.5-1.5,16.5h-28.5v43h36.5c4.04,2.44,3.88,18-1,18h-35.5v70.5c0,4.14-16.78,5.48-19,1v-71.5h-47c-1.28,11.81-2.16,23.82-6.52,34.98-7.03,17.98-24.11,32.55-40.88,41.1-2.29-5.09-11.52-10.53-9.45-16.42.38-1.08,15.75-10.36,18.86-13.15,14.24-12.77,18.75-27.53,18.99-46.51h-39.5l-1.98-2.02c-.56-3.4-1.86-13.86,1.48-15.49l40-.5v-43,.02h0ZM1062,1280h-47v43h47v-43Z"/>
  <path d="M1265,1360c-.97-.49-1.89-1.02-2.49-1.98l-.31-63.32c1.55-5.25,19.98-1.6,24.75-2.75l3.04-13.95h-37c-.5,46.27,4.7,96.11-21.99,136.52-1.8,1.13-3.98.45-5.76-.28-2.19-.91-10.53-7.36-10.11-9.5.27-1.36,5.16-7.4,6.37-9.72,23.21-44.16,9.14-84.58,14.43-129.57.17-1.45.13-2.57,1.55-3.45h114l1.98,2.02c.66,3.14,1.73,11.93-1.48,13.49l-43.96.54-4.04,13.95h35.5c1.25,0,4.14,2.71,3.56,4.44-1.82,18.56,2.21,41.05-.01,59.11-.18,1.46-.91,3.59-2.05,4.45h-30.01v38c-3.84,22.7-20.31,13.39-36.99,17-5.77-23.88,2.83-14.29,19.77-18.25.46-.48.08-1.37.22-1.75,3.25-8.64-.35-25.25,1.01-35.01h-30.01.03,0ZM1327,1319c-.52-3.86,1.43-9.09-1.5-12h-46.5v12h48ZM1327,1333h-48v12h48v-12Z"/>
  <path d="M604,1276l-1.01,12.01h36.01c1.34,1.01,2.21,3.7,2.07,5.43l-.56,71.57c-1.79,3.67-18.94,3.95-15.51-5.01l-23.9.11c-1.45,8.99-4.3,17.66-9.12,25.38,17.17,8.14,36.37,9.86,55.03,12l1.77,3.84-5.9,12.55c-21.82-1.26-43.47-6.45-63.23-15.66-5.21,4.35-38.27,20.34-42.5,17.64-1.35-5.03-7.46-9.18-4.91-14.6l33.76-13.26-16.9-20.66,7.9-7.32c-2.8-.2-6.76,1.11-8-2.01v-68c.41-.94,1.08-1.57,2-2h36.01c-.11-2.64.16-5.36,0-8-.08-1.33.07-2.68,0-4l-40.01-.49c-2.96-1.44-3.45-14.08.71-15.3h96.58c5.35,1.55,5.37,14.04,0,15.58l-40.29.21h0ZM565.64,1302.14l-1.2.8.5,13.63,21.63-.5-.5-13.63-20.42-.3h-.01ZM603,1317h21.5c2.42-3.22,2.45-11.66,0-15h-21.5v15ZM564,1331v14h23v-14h-23ZM603,1331v14h23v-14h-23ZM585,1360h-21c1.5,2.64,12.16,16.55,14.48,16,3.72-4.54,5.33-10.38,6.52-16Z"/>
  <path d="M766,1359c-3.25-2.05-3.21-14.67.5-17h56.5v-36h-27.5l-14.5,29.57c-.93.59-16.94-5.37-14.81-9.83,10.26-19.7,17.46-40.73,22.77-62.31,3.95,1.16,14.6,1.23,16.35,4.85,1.33,2.77-4.31,16.84-5.31,20.73h23v-35.5c2.67-2.45,18-3.02,18,2v33.5h35.5l1.98,2.02c.55,4.64,2.17,11.81-1.98,14.98h-35.5v36h40.5c3.98,0,5.19,14.21,1.5,17l-42,1-.03,51.47c-.98,6.4-16.9,6.55-17.94,1l-.03-52.47-57-1h0Z"/>
  <path d="M1672,1264l.99-1.49,139.49-.49c6.37,1.27,5.87,13.11,2.03,16.97h-125.5v110h127.5c3.89,2.18,3.41,14.8.5,17h-143l-2-2v-140h-.01Z"/>
  <path d="M238,1408l-.92-3.57,54.81-137.84,20.22.03,56.46,137.88c-.78.62-1.38,3.5-1.57,3.5h-19l-16.12-42.88-57.42-.19-18.96,43.07h-17.5ZM325,1347l-22.01-57-22.99,57h45Z"/>
  <path d="M1543,1300l38,1c2.9,2.19,3.26,13.95,0,16l-38,1v74h42.5c3.89,2.18,3.41,14.8.5,17h-104c-3.6-2.27-1.92-11.03-1.48-14.98l1.98-2.02h42.5v-74l-36-1c-3.22-2.03-3.09-14.03,0-16l36-1,.2-45.3c1.25-4.25,17.13-4.56,17.77,1.82l.03,43.47h0Z"/>
  <path d="M513,1391c2.77,12-7.42,15.79-16,9.5v-51.5l-5.19,6.79c-5.47,3.18-10.19-8.44-11.76-12.3,12.1-19.39,22.77-40.52,25.95-63.49h-18.5c-3.82-2.35-3.83-14.61.2-15.8,7.11.53,52.93-1.94,55.4,1.2,1.67,2.14,1.72,11.73-1.09,13.1l-18.96.54-8.05,30.95h22.5l1.98,2.02.56,73.53c-.06,1.39-1,3.65-2.05,4.45l-25,1h.01ZM525,1324c-2.83.54-11.84-1.46-12.86,1.64v48.72l1.5,1.5,11.36.14v-52Z"/>
  <path d="M1449,1349c-13.67,8.51-21.55,26.3-26.87-1.29,16.43-13.05,32.77-27.34,41.87-46.71h-35.5c-3.86-3.02-3.84-13.01,0-16h25.5c-.13-7.12-9.45-19.43-9.7-25.32-.22-5.22,9.05-6.3,13.2-7.71,1.35-.05,1.69.83,2.4,1.65.87,1,10.58,22.53,10.91,24.14,1.02,5-1.22,4.41-3.81,7.26h14.5c7.8,11.15-1.27,23.06-7.09,32.91-3.39,5.76-8.95,9.58-7.41,17.08,4.17-.11,5.73-7.48,9.97-5.53,1.29.59,19.35,18.75,20.07,19.98,3.27,5.58-6.74,14.76-11.33,13.38-3.54-1.06-14.49-16.97-18.72-19.82v69.5l-2.02,1.98c-3.95.44-12.71,2.12-14.98-1.48l-1-64v-.02h.01Z"/>
  <path d="M1797.73,1289.26c.8.86,1.05,2.11,1.16,3.24-8.66,14.75-21.44,27.27-32.82,40.14l38.43,37.38c2.43,5.18-8.62,11.11-12.01,14.01l-39.14-36.96-46.07,38.81-2.26-.35c-2.82-3.61-12.96-9.94-9.81-15.33,15.91-10.14,30.66-22.22,43.71-35.84l-38.41-35.36c-.74-1.35-.98-4.46-.29-5.79.33-.64,9.93-8.81,11.75-7.76l40.39,35.48,31.64-38.5,2.02-.04c2.31,2.51,9.95,4.98,11.71,6.87h0Z"/>
  <path class="st10" d="M927,779c1.96-8.73.52-17.94,1-27,.69-13.1,4.43-19.71,13.03-29.47,4.5-5.11,22.34-22.9,26.54-9.57,2.19,6.96-10.27,16.06-14.54,21.57-12.06,15.6-8.22,31.01-9.04,49.96-.2,4.65-2.03,11.58-1.99,16.03.11,12.73,32.19,35.45,28.8,50.77-.79,3.58-5.42,7.07-9.08,6.54-4.68-.69-11.92-16.94-15.3-21.73-6.32-8.94-21.77-27.83-31.63-31.37-13.8-4.94-38.89-5.81-47.77-18.23-2.97-4.15-4.96-9.47.01-12.97,7.83-5.5,11.22,2.61,16.04,5.91,4.04,2.76,29.52,9.61,34.45,9.56,6.71-.07,8.23-4.41,9.49-10h-.01Z"/>
  <path d="M739,1331c-4.05,2.17-10.31,17.44-13.49,18.07-.79.16-4.04.12-4.4-.19l-4.61-17.83c16.41-23.09,27.25-49.57,35.44-76.61,4.01-2.74,17.43-.08,17.01,5.97-.66,9.52-10.23,24.12-11.94,34.09l-.9,119.1c-1.69,2.14-14.69,2.35-17.1-.1v-82.5h-.01Z"/>
  <rect x="386" y="1266" width="20.06" height="142.06"/>
  <rect x="1171.73" y="1370.07" width="69.41" height="18" transform="translate(-414.98 2232.5) rotate(-76.58)"/>
  <path d="M1328.81,1365.19l26.69,31.69c1.08,5.04-8.94,9.01-12.02,11.94l-27.33-33.52c-1.84-4.84,9.91-11.72,12.65-10.12h.01Z"/>
  <path d="M1272.66,1365.09c3.97.76,13.84,5.18,12.84,10.02-1.21,5.85-21.49,26.92-26.21,32.68-4.76,1.47-13.69-4.78-12.11-10.08l25.49-32.63h-.01Z"/>
  <path d="M1203.71,1254.14c1.74-.42,2.9.6,4.24,1.42,7.78,4.76,15.63,15.24,23.56,20.43.89,1.7.71,3.28-.03,4.99-.46,1.08-11.27,11.31-13.03,8.08l-24.32-22.73c-2.82-2.99,8.53-11.94,9.57-12.19h.01Z"/>
  <path d="M1197.72,1297.15c1.75-.47,2.89.62,4.23,1.42,2.49,1.48,22.86,18.91,23.54,20.46,2.86,6.54-6.86,9.6-10.12,13.91-3.41-3.55-26.44-21.34-27.23-23.6-1.85-5.29,6.33-9.33,9.58-12.18h0Z"/>
  <path class="st10" d="M384,841l-1-195,1,195Z"/>
  <path class="st9" d="M553,1167h135.01l.99-126c-.04,41.17,0,82.37.05,123.55l-.99,3.01-135.06-.56Z"/>
  <path class="st10" d="M689,762c-1.65-1.05-1-3.79-1.02-5.48-.35-27.94-3.75-80.45,1.02-105.52v111Z"/>
  <path class="st10" d="M1020,761v-97c.2.72,1.61,1.91,1.07,3.38-2.34,28.84,2.85,61.92,0,90.24-.2,1.98-.76,2.31-1.07,3.38Z"/>
  <path class="st10" d="M1020,893l-1-86c.21.9.9,1.46,1.07,3.38,2.22,24.36.25,57.43-.07,82.62Z"/>
  <path class="st4" d="M384,1144c-.03,7.99.02,16.02,0,24.01-8.99.04-18.02-.07-27.01,0,3.28-2.54,24.95.06,26.01-.99.6-7.43-1.3-15.9.99-23.01h.01Z"/>
  <path class="st11" d="M927,779c.62-8.78-1.29-18.51,1-27-.48,9.06.96,18.27-1,27Z"/>
  <path class="st3" d="M938.8,993.3c16.19-1.25,32.05-.7,46.12,8.28,6.72,4.29,12.34,9.6,13.12,17.88,1.34,14.23-1.05,30.54-.07,45.01-1.01,5.35-10.17,6.45-14.77,7.23-48.45,8.24-113.7,3.37-133.69-49.73-1.4-3.73-4.91-13.35-2.59-16.55,1.3-1.28,2.81-2.07,4.63-2.37,8.11-1.33,20.54-.26,29.82-1.18,19.13-1.89,38.3-7.1,57.42-8.58h.01Z"/>
  <path class="st3" d="M1282.73,907.24c13.82-2.87,24.4,8.06,20.8,21.79-1.24,4.72-6.37,7.38-8.96,11.04-2.07,2.91-3.06,6.91-5.15,9.85-8.77,12.42-19.28,25.61-32.39,33.61l-127.55.45c-7.78,1.01-8.97,10.27-18.93,11.07-14.44,1.16-14.67-9.36-21.27-10.84-3.85-.86-12.71-1.22-14.07,3.5,1,14.18-2.07,32.12-.27,45.84.31,2.35,1.05,3.61,3.08,4.92l116.5.55c6.27-.37,8.57-8.01,14.45-9.55,20.45-5.36,30.52,20.4,14.36,30.36-9.56,5.9-18.52.85-24.96-6.7-43.25-2.58-87.35-.45-130.92-1.08l-3.96-2.04-.54-73.55,2.04-3.96,25.29-.71c5.92-1.34,6.58-9.41,17.18-9.84,8.9-.36,11.29,3.33,17.16,8.93,41.16,2.46,83.18.7,124.65.9,6.21-1.24,26.23-21.4,28.62-27.37,3.15-7.87-.62-5.88-3.33-9.47-6.94-9.21-3.66-25.25,8.16-27.7h0ZM1290.63,923.5c0-1.73-1.4-3.13-3.13-3.13s-3.13,1.4-3.13,3.13,1.4,3.13,3.13,3.13,3.13-1.4,3.13-3.13ZM1111.63,979.5c0-1.73-1.4-3.13-3.13-3.13s-3.13,1.4-3.13,3.13,1.4,3.13,3.13,3.13,3.13-1.4,3.13-3.13ZM1217.63,1045.5c0-1.73-1.4-3.13-3.13-3.13s-3.13,1.4-3.13,3.13,1.4,3.13,3.13,3.13,3.13-1.4,3.13-3.13Z"/>
  <path class="st3" d="M1063,761l1-77c2.12-6.4,9.88-12.98,16.59-13.91,9.1-1.25,35.6-1.14,44.91-.09,10.47,1.18,41.81,27.36,43.43,37.57.81,5.13-.85,11.74.28,16.72,1.49,6.59,9.9,6.1,8.84,19.26-1.69,20.86-36.02,19.39-33.07-5.08,1.04-8.6,10.54-11.86,11.81-16.18,1.13-3.85.56-11.4-1.79-14.79-2.79-4.03-23.96-23.41-28.02-24.98-5.89-2.29-33.39-2.37-40.4-1.42-4.21.57-8.9,2.76-9.53,7.47,1.61,21.97-2.35,47.45-.11,68.99.87,8.33,7.89,8.99,9.58,15.42,7.32,27.93-37.09,30.16-32.46,1.59,1.04-6.39,7.05-8.18,8.93-13.56h0ZM1164.63,741.5c0-1.73-1.4-3.13-3.13-3.13s-3.13,1.4-3.13,3.13,1.4,3.13,3.13,3.13,3.13-1.4,3.13-3.13ZM1073.63,778.5c0-1.73-1.4-3.13-3.13-3.13s-3.13,1.4-3.13,3.13,1.4,3.13,3.13,3.13,3.13-1.4,3.13-3.13Z"/>
  <path class="st3" d="M1155.73,779.23c13.9-2.87,24.41,8.02,20.8,21.8-1.3,4.96-6.62,7.1-8.41,10.59-1.24,2.42-.89,4.84-1.91,7.09-4.41,9.74-34.13,34.65-43.2,44.8-2.39,2.68-4.7,6.07-7.25,8.75-1.25,3.07-1.42,32.88-.7,37.19.91,5.43,7.46,7.59,9.17,12.83,8.31,25.42-30.39,31.65-32.28,8.28-1.07-13.23,7.79-12.96,8.99-20.11,1.95-11.59-2.61-33.46.5-43.5,1.68-5.43,10.32-11.1,14.1-14.9,1.45-1.46,2.26-3.33,3.46-4.54,11.2-11.24,24.48-21.31,33.78-34.16.32-3.48-7.09-7.62-8.32-12.32-2.24-8.55,1.91-19.87,11.26-21.8h0ZM1163.63,795.5c0-1.73-1.4-3.13-3.13-3.13s-3.13,1.4-3.13,3.13,1.4,3.13,3.13,3.13,3.13-1.4,3.13-3.13ZM1111.91,928.5c0-1.89-1.53-3.42-3.42-3.42s-3.42,1.53-3.42,3.42,1.53,3.42,3.42,3.42,3.42-1.53,3.42-3.42Z"/>
  <path class="st3" d="M1195.45,893.47c-3.67,2.71-9.18,3.19-13.98,2.55-15.78-2.07-17.59-28.61-1.5-32.55,5.83-1.43,11.74,1.07,16.98-2.02,6.29-3.7,24.29-25.32,30.34-31.81,2.08-2.24,6.19-3.55,8.31-6.63,1.68-5.96-8.17-9.38-9.39-14.73-1.82-8.02-.13-15.47,6.85-19.72,15.87-9.67,33.07,7.77,23.77,22.77-3.86,6.23-9.94,7.74-8.58,17.42l-44.7,43.3c-4.05,6.88,1.62,14.24-8.09,21.42h-.01ZM1245.63,802.5c0-1.73-1.4-3.13-3.13-3.13s-3.13,1.4-3.13,3.13,1.4,3.13,3.13,3.13,3.13-1.4,3.13-3.13ZM1188.63,879.5c0-1.73-1.4-3.13-3.13-3.13s-3.13,1.4-3.13,3.13,1.4,3.13,3.13,3.13,3.13-1.4,3.13-3.13Z"/>
  <path class="st10" d="M1063,761l-.07-73.61c-.57-1.55.82-2.63,1.07-3.39l-1,77Z"/>
  <rect class="st3" x="1015" y="1280" width="47" height="43"/>
  <rect class="st3" x="1279" y="1333" width="48" height="12"/>
  <path class="st3" d="M1327,1319h-48v-12h46.5c2.93,2.91.98,8.14,1.5,12Z"/>
  <path class="st3" d="M603,1317v-15h21.5c2.45,3.34,2.42,11.78,0,15h-21.5Z"/>
  <polygon class="st3" points="565.64 1302.14 586.06 1302.44 586.56 1316.06 564.94 1316.56 564.44 1302.94 565.64 1302.14"/>
  <rect class="st3" x="564" y="1331" width="23" height="14"/>
  <rect class="st3" x="603" y="1331" width="23" height="14"/>
  <path class="st3" d="M585,1360c-1.19,5.62-2.8,11.46-6.52,16-2.32.55-12.98-13.36-14.48-16h21Z"/>
  <polygon class="st3" points="325 1347 280 1347 302.99 1290 325 1347"/>
  <path class="st3" d="M525,1324v52l-11.36-.14-1.5-1.5v-48.72c1.02-3.1,10.03-1.1,12.86-1.64Z"/>
  <circle class="st1" cx="1214.5" cy="1045.5" r="3.13"/>
  <circle class="st8" cx="1108.5" cy="979.5" r="3.13"/>
  <circle class="st0" cx="1287.5" cy="923.5" r="3.13"/>
  <circle class="st13" cx="1070.5" cy="778.5" r="3.13"/>
  <circle class="st13" cx="1161.5" cy="741.5" r="3.13"/>
  <circle class="st5" cx="1108.5" cy="928.5" r="3.42"/>
  <circle class="st13" cx="1160.5" cy="795.5" r="3.13"/>
  <circle class="st12" cx="1185.5" cy="879.5" r="3.13"/>
  <circle class="st2" cx="1242.5" cy="802.5" r="3.13"/>
  <rect class="st3" x="684.06" y="767.19" width="5.01" height="12.75"/>
</svg>